Patient4_TMGait_0pt6_01_left_19_EMG.mot
version=1
nRows=13
nColumns=33
inDegrees=no
endheader
time	1LAddLong	2LGlutMax	3LGlutMed	4LIliopsoas	5LSemiMemb	6LBicFemLong	7LRecFem	8LVastMed	9LVastLat	10LGasMed	11LTibAnt	12lTibPost	13LPeroneusLong	14LSol	15LExtDigLong	16LFlexDigLong	17RAddLong	18RGlutMax	19RGlutMed	20RIliopsoas	21RSemiMemb	22RBicFemLong	23RRecFem	24RVastMed	25RVastLat	26RGasMed	27RTibAnt	28RTibPost	29RPeroneusLong	30RSol	31RExtDigLong	32RFlexDigLong
24.35	0.019989	0.10223	-0.068359	0.00885	0.01297	0.038147	0.055695	0.000916	0.072174	0.021057	0.017242	-0.016785	-0.058899	-0.010834	-0.014954	0.00946	-0.011749	-0.11856	0.004272	-0.083771	-0.006714	-0.089264	0.30945	0.052338	-0.10498	0.027618	-0.43289	0.005646	-0.39642	-0.25482	-0.000153	0.005646
24.351	0.019073	0.10056	-0.061035	0.006256	0.02121	0.000458	0.049438	-0.006256	0.075073	0.024567	0.015259	-0.013885	-0.030365	-0.032043	-0.001526	0.002289	0.003052	-0.16785	0.16983	-0.02243	-0.020142	-0.085297	0.032654	0.051422	-0.019531	0.011902	-1.1154	0.00061	0.62576	-0.070038	-0.002136	0.006561
24.352	0.011444	0.082397	-0.057373	0.003204	-0.005798	-0.040131	0.052795	-0.003662	0.06134	0.00824	0.020447	-0.009918	-0.03891	-0.01236	0.005646	0.008392	0.001221	-0.14618	0.159	0.070343	0	-0.052643	-0.24216	-0.19684	0.022888	0.004425	-1.741	-0.005798	0.55344	-0.078278	-0.000153	0.005035
24.353	0.015259	0.080261	-0.050507	0.009613	0.015564	-0.004425	0.058899	-0.007477	0.063477	-0.02243	0.027618	-0.01358	-0.055237	-0.001678	-0.000916	0.002594	-0.015564	-0.22553	0.071869	0.018158	0.009613	-0.048828	0.049744	-0.33157	0.087433	-0.018311	-0.99808	-0.003357	-0.25101	-0.088348	-0.001831	-0.005341
24.354	0.02594	0.092316	-0.033264	0.016785	0.059662	0.039368	0.043793	-0.001068	0.061493	-0.030975	0.007324	-0.010529	-0.032654	-0.005341	-0.007019	0.00412	-0.008545	-0.2623	-0.1416	-0.025177	-0.005646	-0.044861	0.24994	-0.4068	0.055237	-0.01358	0.63782	-0.001221	-0.45425	0.056458	-0.002441	-0.006104
24.355	0.013123	0.099487	-0.075378	0.005188	0.090485	0.079803	0.047302	-0.002899	0.061035	-0.042877	0.00473	-0.002136	0.040741	-0.039063	-0.016785	0.002899	0.005493	-0.3096	-0.027008	-0.065613	-0.005188	-0.076141	0.27405	-0.28412	0.018921	-0.007019	1.2505	-0.000763	-0.34225	0.14099	-0.007782	0.000763
24.356	0.001373	0.10666	0.011597	0.014954	-0.014954	0.050659	0.029297	-0.009308	0.048065	-0.058594	-0.003815	-0.017242	0.065765	-0.061035	-0.00473	-0.001068	0.005798	-0.32532	0.21286	-0.10849	0.00061	-0.018005	0.52643	-0.16052	-0.096283	-0.015106	0.73029	-0.000763	-0.037689	0.2388	-0.007477	-0.004272
24.357	-0.005341	0.0737	0.023193	0.010223	-0.087891	-0.029602	0.043793	0.001678	0.050812	-0.039673	0.01236	-0.006561	0.031281	-0.052948	0.024414	0.011597	-0.014954	-0.4097	0.59158	-0.16037	0.011902	0.025787	0.21835	-0.055237	-0.18417	-0.009003	0.52429	-0.006561	-0.17822	0.056	-0.007019	0.001221
24.358	-0.002899	0.083466	0.01709	0.00885	-0.061493	-0.063171	0.049896	0.002747	0.050049	-0.048523	0.032654	0.002441	0.016785	-0.088196	-0.048218	0.001831	-0.013885	-0.45349	0.15945	-0.052795	0.001984	0.024261	0.16907	0.34317	-0.13275	-0.001831	0.16251	-0.00412	-0.27466	0.009308	-0.004272	-0.004272
24.359	-0.002899	0.10529	0.009613	0.001068	-0.029755	-0.049438	0.042114	0.004425	0.048981	-0.035706	0.000916	-0.006866	0.017548	-0.1181	0.059509	-0.006256	-0.019379	-0.50491	-0.30823	0.051575	0.011597	0.044556	0.15381	0.60623	0.032349	-0.004578	-0.001831	-0.001678	-0.42679	0.10223	-0.005341	-0.001526
24.36	0.013123	0.103	-0.026245	0.003662	0.032196	-0.042572	0.021515	-0.001984	0.073395	-0.030823	-0.009003	-0.002747	0.03418	-0.10147	0.38589	0.003204	-0.011749	-0.495	-0.35858	0.062256	0.018616	0.050049	0.10727	0.50476	0.13626	0	0.2945	-0.000153	-0.69733	0.12863	-0.002289	-0.009308
24.361	0.01709	0.10696	-0.037689	0.006104	0.026245	-0.023804	0.018005	-0.00824	0.07843	-0.041656	0.005646	0.002747	0.009918	-0.083618	0.41702	0.003052	-0.010071	-0.41916	0.08667	0.055389	0.0177	0.064545	0.26123	0.076904	0.10208	0.003662	0.39154	-0.004883	0.60516	-0.034485	-0.003052	-0.006714
24.362	0.023346	0.10162	-0.016785	0.010376	0.012054	0.009155	0.0177	-0.002747	0.056305	-0.040283	0.057373	-0.004425	0	-0.16068	-0.3186	-0.003662	0.006256	-0.46432	0.7103	0.093689	-0.000916	0.04837	0.29648	-0.103	0.12802	-0.01358	-0.005341	0.000763	0.3598	0.005493	-0.001678	-0.019684
